# xmcd
#
# Track frame offsets: 
#        150
#        32074
#        61756
#        100688
#        126891
#        162691
#        206249
#
# Disc length: 3157 seconds
#
# Revision: 0
# Processed by: cddbd v1.5.2PL0 Copyright (c) Steve Scherf et al.
# Submitted via: ExactAudioCopy v0.95b4
#
DISCID=5f0c5307
DTITLE=Eric Clapton - 1987-04-18 - Minnesota Night - CD2
DYEAR=1987
DGENRE=Blues
TTITLE0=Tearing Us Apart
TTITLE1=Holy Mother
TTITLE2=Badge
TTITLE3=Let It Rain
TTITLE4=Cocaine
TTITLE5=Layla
TTITLE6=Sunshine Of Your Love
EXTD=
EXTT0=
EXTT1=
EXTT2=
EXTT3=
EXTT4=
EXTT5=
EXTT6=
PLAYORDER=
